<svg width="15" height="15" viewBox="0 0 15 15" fill="none" xmlns="http://www.w3.org/2000/svg">
<path d="M13.9487 13.3428L10.4487 9.84283C11.3304 8.763 11.7635 7.38571 11.6586 5.9956C11.5537 4.60548 10.9187 3.30881 9.88487 2.37357C8.85107 1.43833 7.49748 0.936 6.10383 0.970408C4.71019 1.00482 3.38303 1.57333 2.39664 2.55845C1.41026 3.54357 0.840037 4.87 0.803837 6.26359C0.767637 7.65719 1.26822 9.01143 2.20213 10.0464C3.13605 11.0814 4.4319 11.7181 5.82188 11.8248C7.21185 11.9315 8.5897 11.5001 9.67067 10.6198L13.1707 14.1198C13.2218 14.1709 13.2824 14.2114 13.3491 14.2391C13.4159 14.2667 13.4874 14.281 13.5597 14.281C13.6319 14.281 13.7034 14.2667 13.7702 14.2391C13.8369 14.2114 13.8976 14.1709 13.9487 14.1198C13.9998 14.0687 14.0403 14.0081 14.0679 13.9414C14.0956 13.8746 14.1098 13.8031 14.1098 13.7308C14.1098 13.6586 14.0956 13.5871 14.0679 13.5203C14.0403 13.4536 13.9998 13.3929 13.9487 13.3418V13.3428ZM1.92767 6.41783C1.92787 5.56366 2.18134 4.72872 2.65604 4.0186C3.13073 3.30847 3.80534 2.75505 4.59455 2.42831C5.38376 2.10157 6.25214 2.01618 7.08988 2.18294C7.92761 2.34971 8.69709 2.76113 9.30101 3.36519C9.90494 3.96926 10.3162 4.73883 10.4828 5.57661C10.6493 6.41438 10.5637 7.28274 10.2368 8.07187C9.90988 8.86101 9.35631 9.53549 8.64607 10.01C7.93584 10.4846 7.10084 10.7378 6.24667 10.7378C5.10135 10.7368 4.00326 10.2813 3.19349 9.4713C2.38372 8.66135 1.92846 7.56315 1.92767 6.41783Z" fill="white"/>
</svg>
